<svg width="40" height="40" viewBox="0 0 40 40" fill="none" xmlns="http://www.w3.org/2000/svg">
<mask id="path-1-inside-1_1085_24066" fill="white">
<path d="M30.1818 29C32.0782 28.2441 34 26.54 34 23.0935C34 17.9686 29.7618 16.6874 27.6364 16.6874C27.6364 14.1249 27.6364 9 20 9C12.3636 9 12.3636 14.1249 12.3636 16.6874C10.2382 16.6874 6 17.9686 6 23.0935C6 26.54 7.92182 28.2441 9.81818 29"/>
</mask>
<path d="M29.6264 27.6066C28.8568 27.9134 28.4817 28.7859 28.7884 29.5554C29.0952 30.325 29.9677 30.7001 30.7372 30.3934L29.6264 27.6066ZM27.6364 16.6874H26.1364C26.1364 17.5158 26.8079 18.1874 27.6364 18.1874V16.6874ZM12.3636 16.6874V18.1874C13.1921 18.1874 13.8636 17.5158 13.8636 16.6874H12.3636ZM9.26276 30.3934C10.0323 30.7001 10.9048 30.325 11.2116 29.5554C11.5183 28.7859 11.1431 27.9134 10.3736 27.6066L9.26276 30.3934ZM30.7372 30.3934C31.878 29.9387 33.0807 29.1773 33.9996 27.959C34.9304 26.7249 35.5 25.1133 35.5 23.0935H32.5C32.5 24.5202 32.1087 25.4839 31.6045 26.1525C31.0884 26.8368 30.382 27.3054 29.6264 27.6066L30.7372 30.3934ZM35.5 23.0935C35.5 20.047 34.2073 17.9953 32.4958 16.7543C30.8601 15.5682 28.9409 15.1874 27.6364 15.1874V18.1874C28.4573 18.1874 29.7199 18.4471 30.7347 19.183C31.6736 19.8638 32.5 21.0152 32.5 23.0935H35.5ZM29.1364 16.6874C29.1364 15.4615 29.1672 13.1229 27.9703 11.1148C26.6728 8.93775 24.1879 7.5 20 7.5V10.5C23.4485 10.5 24.7818 11.6247 25.3933 12.6507C26.1055 13.8457 26.1364 15.3508 26.1364 16.6874H29.1364ZM20 7.5C15.8121 7.5 13.3272 8.93775 12.0297 11.1148C10.8328 13.1229 10.8636 15.4615 10.8636 16.6874H13.8636C13.8636 15.3508 13.8945 13.8457 14.6067 12.6507C15.2182 11.6247 16.5515 10.5 20 10.5V7.5ZM12.3636 15.1874C11.0591 15.1874 9.1399 15.5682 7.50424 16.7543C5.79268 17.9953 4.5 20.047 4.5 23.0935H7.5C7.5 21.0152 8.32641 19.8638 9.2653 19.183C10.2801 18.4471 11.5427 18.1874 12.3636 18.1874V15.1874ZM4.5 23.0935C4.5 25.1133 5.06962 26.7249 6.00038 27.959C6.91928 29.1773 8.12204 29.9387 9.26276 30.3934L10.3736 27.6066C9.61796 27.3054 8.91163 26.8368 8.39552 26.1525C7.89129 25.4839 7.5 24.5202 7.5 23.0935H4.5Z" fill="#0E1218" mask="url(#path-1-inside-1_1085_24066)"/>
<path d="M20 18.5V25.5" stroke="#0E1218" stroke-width="1.5" stroke-linecap="round" stroke-linejoin="round"/>
<path d="M20 30V32" stroke="#0E1218" stroke-width="1.5" stroke-linecap="round" stroke-linejoin="round"/>
</svg>
