<svg width="40" height="40" viewBox="0 0 40 40" fill="none" xmlns="http://www.w3.org/2000/svg">
<path d="M21.0227 21.5343V22.2843H21.7727C22.5194 22.2843 23.6584 22.5235 24.591 23.2232C25.4872 23.8957 26.25 25.0329 26.25 26.9795C26.25 28.3019 25.8965 29.238 25.4099 29.9056C24.9504 30.536 24.3424 30.9674 23.7096 31.25H7.29037C6.65756 30.9674 6.04962 30.536 5.59013 29.9056C5.1035 29.238 4.75 28.3019 4.75 26.9795C4.75 25.0329 5.51284 23.8957 6.40904 23.2232C7.3416 22.5235 8.48055 22.2843 9.22727 22.2843H9.97727V21.5343C9.97727 20.4174 9.99209 18.9865 10.6613 17.8247C11.2791 16.752 12.56 15.75 15.5 15.75C18.44 15.75 19.7209 16.752 20.3387 17.8247C21.0079 18.9865 21.0227 20.4174 21.0227 21.5343Z" stroke="#0E1218" stroke-width="1.5"/>
<path d="M20 13.5577C20.8637 13.1962 21.8106 13 22.7992 13C26.7742 13 30 16.2019 30 20.1474C30 21.5624 29.5838 22.8948 28.8658 24" stroke="#0E1218" stroke-width="1.5" stroke-linecap="round" stroke-linejoin="round"/>
<path d="M34 19H36" stroke="#0E1218" stroke-width="1.5" stroke-linecap="round" stroke-linejoin="round"/>
<path d="M24.2664 8.53336L24.2852 6.40002" stroke="#0E1218" stroke-width="1.5" stroke-linecap="round" stroke-linejoin="round"/>
<path d="M33 10L31 12" stroke="#0E1218" stroke-width="1.5" stroke-linecap="round" stroke-linejoin="round"/>
</svg>
