<svg width="40" height="40" viewBox="0 0 40 40" fill="none" xmlns="http://www.w3.org/2000/svg">
<path d="M7.49023 21.245V17.735C7.49023 10.985 12.9652 5.52502 19.7152 5.52502C26.4652 5.52502 31.9252 10.985 31.9252 17.735" stroke="#0E1218" stroke-width="1.5" stroke-linecap="round" stroke-linejoin="round"/>
<path d="M11.0742 20.15V18.35C11.0742 13.58 14.9292 9.70996 19.6992 9.70996C24.4692 9.70996 28.1292 13.37 28.3242 17.975" stroke="#0E1218" stroke-width="1.5" stroke-linecap="round" stroke-linejoin="round"/>
<path d="M14.4941 19.13C14.4941 16.25 16.8341 13.895 19.6991 13.895C22.3841 13.895 24.6041 15.98 24.8741 18.59" stroke="#0E1218" stroke-width="1.5" stroke-linecap="round" stroke-linejoin="round"/>
<path d="M34.0705 29.57C35.4355 29.57 36.5305 28.46 36.5305 27.11C36.5305 25.76 35.4205 24.65 34.0705 24.65C33.6505 24.65 33.2605 24.77 32.9155 24.95C32.7055 23.015 31.0855 21.485 29.0905 21.485C27.0955 21.485 25.5505 22.925 25.2805 24.8C25.0255 24.71 24.7405 24.65 24.4405 24.65C23.0755 24.65 21.9805 25.76 21.9805 27.11C21.9805 28.46 23.0905 29.57 24.4405 29.57H33.9205" stroke="#0E1218" stroke-width="1.5" stroke-linecap="round" stroke-linejoin="round"/>
<path d="M15.59 32.585C16.955 32.585 18.05 31.475 18.05 30.125C18.05 28.775 16.94 27.665 15.59 27.665C15.17 27.665 14.78 27.785 14.435 27.965C14.225 26.03 12.605 24.5 10.61 24.5C8.615 24.5 7.07 25.94 6.8 27.815C6.545 27.725 6.26 27.665 5.96 27.665C4.595 27.665 3.5 28.775 3.5 30.125C3.5 31.475 4.61 32.585 5.96 32.585H15.44" stroke="#0E1218" stroke-width="1.5" stroke-linecap="round" stroke-linejoin="round"/>
</svg>
